<svg xmlns="http://www.w3.org/2000/svg" viewBox="0 0 257.97 80"><defs><style>.cls-1{fill:#1f2126;}.cls-2{fill:#21cc82;}.cls-3{fill:#2d3035;}.cls-4{fill:#fff;}</style></defs><title>ParaBox-黑</title><g id="图层_2" data-name="图层 2"><g id="图层_1-2" data-name="图层 1"><path class="cls-1" d="M35.87,80a9.18,9.18,0,0,1-4.57-1.22L4.57,63.35A9.17,9.17,0,0,1,0,55.43V24.56a9.16,9.16,0,0,1,4.57-7.91L31.3,1.22a9.15,9.15,0,0,1,9.14,0L67.17,16.65a9.16,9.16,0,0,1,4.57,7.91V55.43a9.17,9.17,0,0,1-4.57,7.92L40.44,78.78A9.18,9.18,0,0,1,35.87,80Zm0-76.09a5.26,5.26,0,0,0-2.61.7L6.53,20a5.24,5.24,0,0,0-2.61,4.52V55.43A5.25,5.25,0,0,0,6.53,60L33.26,75.39a5.23,5.23,0,0,0,5.22,0L65.21,60a5.25,5.25,0,0,0,2.61-4.53V24.56A5.24,5.24,0,0,0,65.21,20L38.48,4.61A5.29,5.29,0,0,0,35.87,3.91Z"/><circle class="cls-2" cx="15.54" cy="50.41" r="4"/><circle class="cls-2" cx="55.4" cy="50.41" r="4"/><path class="cls-1" d="M25.2,46.58,9,45.69a1.6,1.6,0,0,1-1.51-1.6h0A1.59,1.59,0,0,1,9,42.5l16.19-.9Z"/><path class="cls-1" d="M45.75,46.58l16.19-.89a1.6,1.6,0,0,0,1.51-1.6h0a1.59,1.59,0,0,0-1.51-1.59l-16.19-.9Z"/><path class="cls-3" d="M34.72,24.94,29,23.39a1.13,1.13,0,0,1-.82-1.23h0a1.13,1.13,0,0,1,1.1-1l5.94-.11Z"/><path class="cls-3" d="M36.23,24.94,42,23.39a1.13,1.13,0,0,0,.83-1.23h0a1.14,1.14,0,0,0-1.1-1l-5.94-.11Z"/><path class="cls-1" d="M39,31.87H31.91l1.73-12a1.84,1.84,0,0,1,1.83-1.58h0a1.84,1.84,0,0,1,1.83,1.58Z"/><path class="cls-2" d="M48.55,40.57a13,13,0,0,1-3.81,9.23,12.79,12.79,0,0,1-9.24,3.88,13.11,13.11,0,0,1-13.11-13,11.82,11.82,0,0,1,.15-1.88c0-.33.11-.65.18-1s.12-.54.2-.8a13,13,0,0,1,2-4c.12-.17.25-.34.38-.49a13.07,13.07,0,0,1,20.5,0,4.49,4.49,0,0,1,.37.49,12.46,12.46,0,0,1,1.93,4c.07.26.15.53.2.8s.12.65.16,1A11.06,11.06,0,0,1,48.55,40.57Z"/><path class="cls-4" d="M43.46,35.48l-.82-2a2.49,2.49,0,0,0-2.34-1.59H30.65a2.52,2.52,0,0,0-2.35,1.59l-.81,2a2.37,2.37,0,0,0,2.2,3.24H41.26a2.37,2.37,0,0,0,2.2-3.24Zm-9.7-1.65h3.43v2.93H33.76Zm-4.41,2.76a.39.39,0,0,1,0-.38l.81-2a.57.57,0,0,1,.53-.35h1.51v2.93H29.69A.42.42,0,0,1,29.35,36.59Zm12.25,0a.42.42,0,0,1-.34.17H38.79V33.83H40.3a.58.58,0,0,1,.53.35l.81,2A.42.42,0,0,1,41.6,36.59Z"/><path class="cls-1" d="M98.4,23a19.27,19.27,0,0,1,6.1.85,11.79,11.79,0,0,1,4.19,2.31,9.09,9.09,0,0,1,2.43,3.48,11.67,11.67,0,0,1,.79,4.34,12.72,12.72,0,0,1-.81,4.61,9.29,9.29,0,0,1-2.47,3.59,11.49,11.49,0,0,1-4.2,2.34,19.34,19.34,0,0,1-6,.84H94.34V56.61H86.55V23Zm0,16.48c2,0,3.49-.48,4.38-1.45a5.77,5.77,0,0,0,1.34-4,6.09,6.09,0,0,0-.35-2.1,4.32,4.32,0,0,0-1-1.63A4.84,4.84,0,0,0,101,29.22a8.09,8.09,0,0,0-2.55-.36H94.34V39.5Z"/><path class="cls-1" d="M113.84,36a14.63,14.63,0,0,1,4.81-2.84,16.64,16.64,0,0,1,5.66-.94,10.3,10.3,0,0,1,3.9.71,8.33,8.33,0,0,1,2.95,2,8.45,8.45,0,0,1,1.86,3,10.71,10.71,0,0,1,.64,3.78V56.61h-3.27a3.39,3.39,0,0,1-1.53-.28,2.13,2.13,0,0,1-.87-1.15l-.5-1.32c-.6.51-1.18,1-1.73,1.34a11.34,11.34,0,0,1-1.72,1,8.34,8.34,0,0,1-1.89.6,11.67,11.67,0,0,1-2.22.2,10,10,0,0,1-3-.43,6.27,6.27,0,0,1-2.27-1.26,5.55,5.55,0,0,1-1.44-2.06,7.59,7.59,0,0,1-.5-2.85,5.9,5.9,0,0,1,.64-2.61,6.42,6.42,0,0,1,2.24-2.42,14.45,14.45,0,0,1,4.28-1.84,28.89,28.89,0,0,1,6.8-.82v-1a4.35,4.35,0,0,0-.86-3,3.18,3.18,0,0,0-2.45-.93,6.69,6.69,0,0,0-2.08.27,9.71,9.71,0,0,0-1.44.63c-.42.23-.83.43-1.23.62a3.48,3.48,0,0,1-1.43.27,2.12,2.12,0,0,1-1.25-.36,3.3,3.3,0,0,1-.83-.88ZM126.7,46.88a22.79,22.79,0,0,0-3.52.37,8.33,8.33,0,0,0-2.19.69,2.64,2.64,0,0,0-1.12,1,2.18,2.18,0,0,0-.31,1.15,2,2,0,0,0,.67,1.71,3.19,3.19,0,0,0,2,.5,5.71,5.71,0,0,0,2.42-.48,7.47,7.47,0,0,0,2.09-1.57Z"/><path class="cls-1" d="M144.91,36.39a10.12,10.12,0,0,1,2.55-3,5.27,5.27,0,0,1,3.31-1.11,4.29,4.29,0,0,1,2.62.76l-.46,5.26a1,1,0,0,1-.38.69,1.26,1.26,0,0,1-.72.19l-.49,0-.62-.06-.66-.06a4.45,4.45,0,0,0-.61,0,3.64,3.64,0,0,0-2.5.83,6.49,6.49,0,0,0-1.58,2.31V56.61h-7.14V32.7h4.24a3.7,3.7,0,0,1,.89.1,1.66,1.66,0,0,1,.6.28,1.28,1.28,0,0,1,.36.52,4.21,4.21,0,0,1,.22.79Z"/><path class="cls-1" d="M155.05,36a14.63,14.63,0,0,1,4.81-2.84,16.64,16.64,0,0,1,5.66-.94,10.3,10.3,0,0,1,3.9.71,8.33,8.33,0,0,1,3,2,8.45,8.45,0,0,1,1.86,3,10.71,10.71,0,0,1,.65,3.78V56.61H171.6a3.39,3.39,0,0,1-1.53-.28,2.13,2.13,0,0,1-.87-1.15l-.5-1.32c-.6.51-1.18,1-1.73,1.34a11.34,11.34,0,0,1-1.72,1,8.34,8.34,0,0,1-1.89.6,11.67,11.67,0,0,1-2.22.2,10,10,0,0,1-3-.43,6.27,6.27,0,0,1-2.27-1.26,5.55,5.55,0,0,1-1.44-2.06,7.59,7.59,0,0,1-.5-2.85,5.9,5.9,0,0,1,.64-2.61,6.42,6.42,0,0,1,2.24-2.42,14.45,14.45,0,0,1,4.28-1.84,28.89,28.89,0,0,1,6.8-.82v-1a4.35,4.35,0,0,0-.86-3,3.18,3.18,0,0,0-2.45-.93,6.69,6.69,0,0,0-2.08.27,9.71,9.71,0,0,0-1.44.63c-.42.23-.83.43-1.23.62a3.48,3.48,0,0,1-1.43.27,2.12,2.12,0,0,1-1.25-.36,3.47,3.47,0,0,1-.83-.88Zm12.86,10.86a22.79,22.79,0,0,0-3.52.37,8.33,8.33,0,0,0-2.19.69,2.64,2.64,0,0,0-1.12,1,2.18,2.18,0,0,0-.31,1.15,2,2,0,0,0,.67,1.71,3.19,3.19,0,0,0,2,.5,5.71,5.71,0,0,0,2.42-.48,7.47,7.47,0,0,0,2.09-1.57Z"/><path class="cls-1" d="M192.07,23a23.46,23.46,0,0,1,5.92.65,11.35,11.35,0,0,1,4,1.82,6.91,6.91,0,0,1,2.25,2.86,9.62,9.62,0,0,1,.7,3.76,7.5,7.5,0,0,1-.32,2.17,6.33,6.33,0,0,1-1,2,7.68,7.68,0,0,1-1.77,1.67,11,11,0,0,1-2.61,1.32,9.27,9.27,0,0,1,4.91,2.6,6.77,6.77,0,0,1,1.59,4.66,9.66,9.66,0,0,1-.82,4,9.15,9.15,0,0,1-2.44,3.21,11.33,11.33,0,0,1-3.95,2.14,17.05,17.05,0,0,1-5.37.78H179.72V23Zm-4.56,5.84v8.29h4.05a13.7,13.7,0,0,0,2.33-.18,4.71,4.71,0,0,0,1.76-.65,2.89,2.89,0,0,0,1.11-1.26,4.84,4.84,0,0,0,.38-2,5.73,5.73,0,0,0-.3-2,2.94,2.94,0,0,0-.92-1.28,4,4,0,0,0-1.58-.69,11.46,11.46,0,0,0-2.27-.2ZM193,50.73a7,7,0,0,0,2.53-.39,4,4,0,0,0,1.53-1,3.37,3.37,0,0,0,.76-1.4,6.15,6.15,0,0,0,.21-1.59,5,5,0,0,0-.25-1.66,2.71,2.71,0,0,0-.83-1.25,4,4,0,0,0-1.55-.78,8.85,8.85,0,0,0-2.44-.28h-5.44v8.37Z"/><path class="cls-1" d="M220.44,32.34a13.77,13.77,0,0,1,5,.85,10.92,10.92,0,0,1,3.84,2.44,11.27,11.27,0,0,1,2.49,3.86,14,14,0,0,1,.88,5.11,14.23,14.23,0,0,1-.88,5.15,11.21,11.21,0,0,1-2.49,3.89,11,11,0,0,1-3.84,2.47,13.56,13.56,0,0,1-5,.87,13.72,13.72,0,0,1-5-.87,11.11,11.11,0,0,1-3.87-2.47,10.84,10.84,0,0,1-2.51-3.89,14.23,14.23,0,0,1-.89-5.15,14,14,0,0,1,.89-5.11,10.89,10.89,0,0,1,2.51-3.86,11,11,0,0,1,3.87-2.44A13.94,13.94,0,0,1,220.44,32.34Zm0,19.33a4,4,0,0,0,3.63-1.74,9.58,9.58,0,0,0,1.17-5.29,9.5,9.5,0,0,0-1.17-5.27,4,4,0,0,0-3.63-1.73,4.16,4.16,0,0,0-3.71,1.73,9.5,9.5,0,0,0-1.17,5.27,9.58,9.58,0,0,0,1.17,5.29A4.16,4.16,0,0,0,220.44,51.67Z"/><path class="cls-1" d="M258,56.61H251.1a2,2,0,0,1-1.23-.37,2.73,2.73,0,0,1-.75-.88L244.85,48a5.38,5.38,0,0,1-.27.74c-.11.23-.23.45-.35.65l-3.5,5.94a5.08,5.08,0,0,1-.76.85,1.61,1.61,0,0,1-1.13.4h-6.37l8-12.36L232.8,32.7h6.87a2.38,2.38,0,0,1,1.11.2,1.77,1.77,0,0,1,.64.66l4.26,7.07a5.21,5.21,0,0,1,.35-.81c.14-.27.29-.55.46-.82l3-5.33a2.31,2.31,0,0,1,.68-.73,1.55,1.55,0,0,1,.89-.24h6.54L250,43.93Z"/></g></g></svg>